<svg width="14" height="14" xmlns="http://www.w3.org/2000/svg"><path d="M8.1 3.4L7.6 1H6.4l-.5 2.4-.7.3-2-1.3-.9.8 1.3 2-.2.7-2.4.5v1.2l2.4.5.3.8-1.3 2 .8.8 2-1.3.8.3.4 2.3h1.2l.5-2.4.8-.3 2 1.3.8-.8-1.3-2 .3-.8 2.3-.4V6.4l-2.4-.5-.3-.8 1.3-2-.8-.8-2 1.3-.7-.2zM8.4 0l.5 2.4L11 1.1l2 2-1.4 2.1 2.4.4v2.8l-2.4.5L13 11l-2 2-2.1-1.4-.5 2.4H5.6l-.5-2.4L3 12.9l-2-2 1.4-2.1L0 8.4V5.6l2.4-.5L1.1 3l2-2 2.1 1.4.4-2.4h2.8zM9 7c0 1.1-.9 2-2 2s-2-.9-2-2 .9-2 2-2 2 .9 2 2zM7 8c.6 0 1-.4 1-1s-.4-1-1-1-1 .4-1 1 .4 1 1 1z" fill="#000" fill-rule="nonzero"/></svg>