<svg width="14" height="14" xmlns="http://www.w3.org/2000/svg"><path d="M8.4 0l.5 2.4L11 1.1l2 2-1.4 2.1 2.4.4v2.8l-1.903.395-.514-.949L13 7.6V6.4l-2.4-.5-.3-.8 1.3-2-.8-.8-2 1.3-.7-.2L7.6 1H6.4l-.5 2.4-.7.3-2-1.3-.9.8 1.3 2-.2.7-2.4.5v1.2l2.4.5.3.8-1.3 2 .8.8 2-1.3.693.26-.714 1.318L5.1 11.6 3 12.9l-2-2 1.4-2.1L0 8.4V5.6l2.4-.5L1.1 3l2-2 2.1 1.4.4-2.4h2.8zM7 5c.627 0 1.188.292 1.556.747L7.984 6.8C7.905 6.313 7.531 6 7 6c-.6 0-1 .4-1 1s.4 1 1 1c.132 0 .254-.02.364-.056L6.798 8.99A2.007 2.007 0 015 7c0-1.1.9-2 2-2zm2.5 1l4.5 8H5l4.5-8zm.5 6H9v1h1v-1zm0-4H9v3h1V8z" fill="#000" fill-rule="nonzero"/></svg>