<svg height="14" viewBox="0 0 14 14" width="14" xmlns="http://www.w3.org/2000/svg"><g fill="none" fill-rule="evenodd"><path d="m6.98778829 0c.09606937 0 .20094509.00928913.30141764.04190508l.09851558.04091146 4.87747739 2.41794732c.2055579.11366148.3759122.28798669.4707305.50248705l.0406906.11050326 1.2154554 5.41561045c.0264883.23477011-.0134088.46936906-.1199659.67526932l-.0719356.11986809-.8361739 1.07049797-.999-1.635.1687592.03769133c.1416047.03578279.2803798.08057228.4104092.13427974h.0193887c.0390667.02006542.0781333.04013085.1172.04013085.0520889.0267539.0954321.04472294.1416047.05967495l.072828.02088623c.0131187 0 .0261088.00891797.0448865.01486328l.0332469.00520215c.0193886 0 .0193886 0 .0390667.02006543.0390667.02006542.0584553.02006542.097522.02006542.1756554 0 .3316328-.12069204.3900881-.28151493-.0584553-.20125322-.195044-.3623756-.3900881-.40250645-.0193886 0-.0193886 0-.0193886-.02006542 0-.02036491-.0587448-.02036491-.0781334-.02036491-.0520889-.01337695-.1041778-.01783594-.1562668-.01932227l-.0781333-.00074316c-.0387773 0-.077844 0-.1169107-.02006542h-.0193887c-.2240024-.02063915-.4458953-.06101621-.6632655-.12069204-.0628647-.02457768-.1125733-.07580336-.1365887-.14075747l-.0050267-.01433086-.0143619-.00603405-.1562668-.04013085c.0781334-.58369425.0390667-1.18745392-.0781334-1.77084869-.1377251-.58536518-.3684137-1.14300094-.6826541-1.65015665l.1169107-.12069204v-.02036491c0-.06019628.019678-.14075746.0587447-.18088832.175366-.14075746.3510214-.28181441.5460654-.38244102l.1172001-.06049576.2144327-.12069204.0587447-.04013085.0193887-.02006543c.1756554-.14075746.214722-.38244102.0781333-.56362882-.0675238-.08505353-.1668999-.13625804-.2731774-.14075747-.097522 0-.195044.04013086-.2731774.10062662l-.0193887.02006542c-.019678.02006543-.0390666.04013085-.0587447.04013085-.0389702.04033051-.0779404.08066102-.1111659.12090279l-.0693125.0945482-.0536323.046298c-.1559774.16082289-.3119547.32194526-.4876101.4426373-.0390667.02006543-.0781334.04043034-.1169107.04043034-.019678 0-.0587447 0-.0781334-.02036491l-.1562667.12099152-.48761014-.48306764c-.72172086-.58369425-1.61909711-.94577036-2.53615139-1.04639697l-.01938865-.16112238-.01967804-.02006542c-.05845533-.04013086-.07813337-.10062662-.09752202-.16112238 0-.22131865 0-.4426373.03906669-.68402138v-.02006542l.05845533-.3623756v-.12069204c.01967804-.20125322-.13658871-.40250645-.33163275-.40250645-.11691068 0-.23411074.04013085-.31195473.12069204-.07813337.08056119-.11720006.1811878-.11720006.28151493v.10092609c0 .08056119.01967804.16082289.03906669.24138408.01292577.02695356.01723436.05377401.01867055.08055009l.0007181.06050686c.03906669.22131865.03906669.4426373.03906669.68402138-.01292577.0403305-.02598015.08052791-.05056698.11482437l-.0663437.06636343-.01967803.16112237c-.2144327.02006543-.42915478.06019628-.66326552.10032713-.9167649.20125322-1.75568581.70438629-2.39956267 1.40877257l-.11691068-.08056118h-.01967803c-.01938865 0-.03906669.02036491-.07813337.02036491-.03877731 0-.09752203-.02036491-.11691068-.04043034-.1756554-.14075746-.33163276-.30187984-.48761012-.46270273l-.024694-.03440738-.05343937-.04645329-.15626675-.18088831-.05845533-.04013085-.01938865-.02006543c-.07843755-.06268618-.17410877-.09792727-.27317742-.10062661-.11691068 0-.21472209.04013085-.29256608.14075746-.11720005.1811878-.07813337.42257188.07813338.56332934l.01364386.00527979.00574479.01508512.03468307.02972656c.00866005.00594531.01730938.01040429.02377227.01040429l.06428586.0402085.15043622.08048354.11691067.06049576c.19504405.12069204.37069945.24138408.54635484.38214154.02930002.03032276.05860003.08321911.06311712.13316742l-.00466178.06808581.11720006.12099152-.05874472.10062661c-.60319035.97933164-.83912239 2.15329538-.66326552 3.30031331l-.15626674.04013085-.00502669.01412012-.01436196.00594531c-.01938865.06049576-.07813338.10062661-.13629933.14075746-.21708801.06150604-.43922718.10201054-.6635549.12099152h-.01938865c-.03906669 0-.07813337 0-.11691068.02006543l-.23440011.02006543c-.01292577 0-.02585154.00891796-.04469358.01486327l-.03343979.00520215c-.01938866 0-.01938866 0-.03877731.02006543-.10151985.01693801-.19205915.07576799-.25091147.16303547-.05885233.08726749-.08098369.19550797-.06133263.29996674.03348573.15530383.16732235.26616179.31549481.28184148l.07488267-.00032655c.03906668 0 .05845533 0 .09752202-.02006543.01938865 0 .01938865 0 .01938865-.02006542 0-.02006543.03906669-.02006543.07813337-.02006543l.07739384-.02534522.13703886-.05521597c.03906669-.02006542.07813337-.04013085.11720006-.04013085h.01938865c.19533343-.08056119.40976613-.14075746.62448821-.1811878h.01938866c.05845533 0 .11720005.02006543.15626674.06049576.01938865 0 .01938865.02006543.01938865.02006543l.1756554-.02006543c.29227669.92540546.83863153 1.75078325 1.59970845 2.35424345.17536601.1407575.33163276.261749.5266768.3623756l-.07813337.1608229.00510171.0143309.01457633.006034c.0387773.0601963.0387773.1407575.01938865.2012532-.07813338.2012533-.19504405.4025065-.31224411.5833948v.0200654c-.01938865.0404304-.0387773.0604958-.07813337.1006266l-.03958115.0523099-.13578486.2094391-.00574479.0148633c-.00287239.0029727-.00718098.0052022-.01364387.0052022-.0978114.2012532-.01967803.4426373.15597737.5432639.03906668.0203649.09752202.0404303.15626674.0404303.15597736 0 .29227669-.1006266.37041006-.2416836l.00583053-.0148632c.00291526-.0029727.00728816-.0052022.01384751-.0052022l.00574478-.0200654.03303252-.0401309.07813337-.2216181.03906669-.120692c.05845533-.2213187.15626674-.4222724.25349938-.6238251.03906669-.0601963.09752203-.1006267.15626675-.1206921.01938865 0 .01938865 0 .01938865-.0200654l.07813337-.1611224.1935863.0719604-1.228 2.009-.10614726-.0137763c-.17975119-.0359538-.35359852-.1196513-.49792661-.2365593l-.10234221-.093681-3.37405107-4.32248137c-.13352958-.19097791-.19991394-.42216695-.19068632-.65531762l.01467775-.13981979 1.21545541-5.44888495c.05074017-.23209524.18829843-.43172496.37963711-.55668291l.0999981-.05606093 4.87747738-2.4347078c.12785528-.03302803.27184073-.03302803.39969601-.03302803zm.07460061 9.23325194c.02961737.0204847.05425746.0409694.07900155.06398605l-1.15126627 1.88389931c-.09291062-.0229575-.18446292-.048494-.27394435-.0761106l.95612097-1.79091409c.09752202-.12099153.25349939-.16112238.3900881-.08086067zm-1.75568582-.86520918c.15597736 0 .31195473.10062661.33163276.26174898.01938865.06019628.01938865.14075747-.01967803.20125323l-.74110951 1.85140983c-.68294355-.4630022-1.22929839-1.16738845-1.50218642-1.97240135zm1.95044048-1.62979175.37069944.48306764-.13658871.58369425-.5266768.2614495-.52667681-.2614495-.15626674-.58369425.37069944-.48306764zm-3.55014893-1.428838 1.44344171 1.32791191c.13658871.12099152.15626674.32224474.03906668.46300221-.02930001.04514721-.05860002.06788927-.1043813.0849037l-1.92448193.57905225c-.07813337-.84514375.11691068-1.71035293.54635484-2.45487007zm6.49606647 0c.215493.36784635.3735125.76859873.4682214 1.18745393l.0407175.21413306-.73-1.195zm-3.72580435-1.85140988-.11720006 2.01253226c0 .18088831-.15626674.32164577-.33163275.32164577l-.05343937-.00594531-.10282738-.03418554-1.58003041-1.18745392c.49369039-.50914098 1.1155038-.86472578 1.79475249-1.02633155zm.95583159.02006543c.81924288.10062661 1.59970845.48306764 2.18484059 1.08652783l-1.58003041 1.1673885c-.13658871.0802617-.33163276.06019627-.42915478-.08086067-.03857992-.03573316-.06005656-.08719306-.05874473-.14075747z" fill="#858585" fill-rule="nonzero"/><path d="m9.71777778 7 4.27777782 7h-8.5555556zm.50298222 5.3491812h-.99999998v1.0127601h.99999998zm0-3.24095955h-.99999998v2.40122725h.99999998z" fill="#eda200"/></g></svg>