<svg height="14" viewBox="0 0 14 14" width="14" xmlns="http://www.w3.org/2000/svg"><path d="m6.98778829 0c.12809249 0 .27184073.01651401.39993322.08281654l4.87747739 2.41794732c.2398176.13260506.4317191.34778019.5116583.61299031h-.0002372l1.2154554 5.41561045c.0317859.28172413-.0320231.56320179-.1919015.79513741l-3.3745255 4.32248137c-.1755342.2484496-.44761209.3810547-.73534578.3480267h-5.3888985c-.27184073-.0167605-.54368146-.1491191-.7358202-.3480267l-3.37405107-4.32248137c-.1602355-.22917349-.22378188-.51625101-.17600857-.79513741l1.21545541-5.44888495c.05919687-.27077778.23656279-.49736639.47963521-.61274384l4.87747738-2.4347078c.12785528-.03302803.27184073-.03302803.39969601-.03302803zm.03524454.5c-.11691068 0-.23411074.04013085-.31195473.12069204-.07813337.08056119-.11720006.1811878-.11720006.28151493v.10092609c0 .08056119.01967804.16082289.03906669.24138408.01938865.04043034.01938865.08056119.01938865.12069204v.02036491c.03906669.22131865.03906669.4426373.03906669.68402138-.01938865.06049576-.03906669.12069203-.09752203.16112237l-.01938865.02006543-.01967803.16112237c-.2144327.02006543-.42915478.06019628-.66326552.10032713-.9167649.20125322-1.75568581.70438629-2.39956267 1.40877257l-.11691068-.08056118h-.01967803c-.01938865 0-.03906669.02036491-.07813337.02036491-.03877731 0-.09752203-.02036491-.11691068-.04043034-.1756554-.14075746-.33163276-.30187984-.48761012-.46270273-.01967803-.04043033-.05874472-.06049576-.07813337-.08086067-.05845534-.05989679-.09752202-.12039255-.15626675-.18088831-.01938865-.02006543-.0387773-.02006543-.05845533-.04013085l-.01938865-.02006543c-.07843755-.06268618-.17410877-.09792727-.27317742-.10062661-.11691068 0-.21472209.04013085-.29256608.14075746-.11720005.1811878-.07813337.42257188.07813338.56332934.01938865 0 .01938865.02036491.01938865.02036491s.03906668.04013085.05845534.04013085c.05845533.04013086.13658871.08056119.21472208.12069204l.11691067.06049576c.19504405.12069204.37069945.24138408.54635484.38214154.03906669.04043034.07813337.12099153.05845534.1811878v.02006543l.11720006.12099152c-.01967804.04013085-.03906669.06019628-.05874472.10062661-.60319035.97933164-.83912239 2.15329538-.66326552 3.30031331l-.15626674.04013085c0 .02006543-.01938865.02006543-.01938865.02006543-.01938865.06049576-.07813338.10062661-.13629933.14075746-.21708801.06150604-.43922718.10201054-.6635549.12099152h-.01938865c-.03906669 0-.07813337 0-.11691068.02006543l-.23440011.02006543c-.01938865 0-.0387773.02006542-.07813337.02006542-.01938866 0-.01938866 0-.03877731.02006543-.10151985.01693801-.19205915.07576799-.25091147.16303547-.05885233.08726749-.08098369.19550797-.06133263.29996674.03906668.1811878.21472208.30187984.39037748.28151493.03906668 0 .05845533 0 .09752202-.02006543.01938865 0 .01938865 0 .01938865-.02006542 0-.02006543.03906669-.02006543.07813337-.02006543.07813337-.02006543.15626675-.06049576.2144327-.08056119.03906669-.02006542.07813337-.04013085.11720006-.04013085h.01938865c.19533343-.08056119.40976613-.14075746.62448821-.1811878h.01938866c.05845533 0 .11720005.02006543.15626674.06049576.01938865 0 .01938865.02006543.01938865.02006543l.1756554-.02006543c.29227669.92540546.83863153 1.75078325 1.59970845 2.35424345.17536601.1407575.33163276.261749.5266768.3623756l-.07813337.1608229c0 .0203649.01967804.0203649.01967804.0203649.0387773.0601963.0387773.1407575.01938865.2012532-.07813338.2012533-.19504405.4025065-.31224411.5833948v.0200654c-.01938865.0404304-.0387773.0604958-.07813337.1006266-.0387773.0404304-.07784399.1209916-.13629933.2012533-.01967803.0203649-.01967803.0404303-.03906668.0604957 0 0 0 .0200655-.01938866.0200655-.0978114.2012532-.01967803.4426373.15597737.5432639.03906668.0203649.09752202.0404303.15626674.0404303.15597736 0 .29227669-.1006266.37041006-.2416836 0 0 0-.0200654.01967804-.0200654 0-.0200654.01938865-.0401308.0387773-.0601963.01967803-.0808606.05874472-.1407574.07813337-.2216181l.03906669-.120692c.05845533-.2213187.15626674-.4222724.25349938-.6238251.03906669-.0601963.09752203-.1006267.15626675-.1206921.01938865 0 .01938865 0 .01938865-.0200654l.07813337-.1611224c.54606546.2216182 1.11180895.3222448 1.69723047.3222448.35102141 0 .70233221-.0404304 1.05335362-.1209916.21472208-.0401308.42915478-.120692.62448821-.1808883l.07813337.1407575c.01938865 0 .01938865 0 .01938865.0200654.05845534.0200654.11691068.0604958.15597736.1206921.09752203.2012532.1756554.4025064.25349939.6037596v.0200655l.03906668.1209915c.01967804.0802617.03906669.1608229.07813338.2213186.01938865.0200655.01938865.0401309.03906668.0601963 0 0 0 .0200654.01938865.0200654.07813338.1407575.21472209.2416836.37069945.2416836.05845534 0 .09752202-.0200654.15626674-.0404303.07784399-.0401309.15597735-.1206921.17536605-.2213187.019678-.1006266.019678-.2213186-.0193887-.3219452 0-.0200655-.019678-.0200655-.019678-.0200655 0-.0200654-.0193887-.0401308-.03906671-.0604957-.03399655-.0746462-.08009617-.1427148-.13629932-.2012533-.01967804-.0401308-.03906669-.0601962-.07813338-.1006266v-.0200654c-.13658871-.1808883-.23440011-.3821415-.3122441-.5833948-.01938865-.0604957-.01938865-.1407574.01967803-.2012532 0-.0203649.01938865-.0203649.01938865-.0203649l-.05845533-.1608229c1.01428696-.6238251 1.75568576-1.58966088 2.12638526-2.73698396l.1562667.02036491c.0193887 0 .0193887-.02036491.0193887-.02036491.0425499-.04032076.0985979-.06191131.1562667-.06019627h.0193887c.2144327.04013085.4291548.10062661.6241988.1811878h.0193887c.0390667.02006542.0781333.04013085.1172.04013085.0781334.04013085.1365887.06049576.2144327.08056118.0196781 0 .0390667.02006543.0781334.02006543.0193886 0 .0193886 0 .0390667.02006543.0390667.02006542.0584553.02006542.097522.02006542.1756554 0 .3316328-.12069204.3900881-.28151493-.0584553-.20125322-.195044-.3623756-.3900881-.40250645-.0193886 0-.0193886 0-.0193886-.02006542 0-.02036491-.0587448-.02036491-.0781334-.02036491-.0781334-.02006543-.1562668-.02006543-.2344001-.02006543-.0387773 0-.077844 0-.1169107-.02006542h-.0193887c-.2240024-.02063915-.4458953-.06101621-.6632655-.12069204-.0628647-.02457768-.1125733-.07580336-.1365887-.14075747 0-.02036491-.0193886-.02036491-.0193886-.02036491l-.1562668-.04013085c.0781334-.58369425.0390667-1.18745392-.0781334-1.77084869-.1377251-.58536518-.3684137-1.14300094-.6826541-1.65015665l.1169107-.12069204v-.02036491c0-.06019628.019678-.14075746.0587447-.18088832.175366-.14075746.3510214-.28181441.5460654-.38244102l.1172001-.06049576c.0781334-.04013085.1365887-.08026171.2144327-.12069204.019678-.02006543.0390667-.02006543.0587447-.04013085l.0193887-.02006543c.1756554-.14075746.214722-.38244102.0781333-.56362882-.0675238-.08505353-.1668999-.13625804-.2731774-.14075747-.097522 0-.195044.04013086-.2731774.10062662l-.0193887.02006542c-.019678.02006543-.0390666.04013085-.0587447.04013085-.0584553.06049576-.1169107.12099153-.1559773.1811878-.0193887.04013085-.0584554.06049576-.0781334.08056119-.1559774.16082289-.3119547.32194526-.4876101.4426373-.0390667.02006543-.0781334.04043034-.1169107.04043034-.019678 0-.0587447 0-.0781334-.02036491l-.1562667.12099152c-.1559774-.16112237-.3313434-.32224475-.48761014-.48306764-.72172086-.58369425-1.61909711-.94577036-2.53615139-1.04639697l-.01938865-.16112238-.01967804-.02006542c-.05845533-.04013086-.07813337-.10062662-.09752202-.16112238 0-.22131865 0-.4426373.03906669-.68402138v-.02006542l.00969432-.06060807.00969433-.06038345c.01967803-.08026171.01967803-.16082289.03906668-.24138408v-.12069204c.01967804-.20125322-.13658871-.40250645-.33163275-.40250645zm.03935607 8.73325194c.05845533.04043033.09752202.08086067.15626674.14075746l.93615355 1.7510827c-.09752202.0200655-.2144327.0401309-.35102141.0805612-.27317742.0601963-.56574349.1006266-.85830956.1006266-.40976613 0-.83921029-.0808606-1.22929839-.2012532l.95612097-1.79091409c.09752202-.12099153.25349939-.16112238.3900881-.08086067zm-1.75568582-.86520918c.15597736 0 .31195473.10062661.33163276.26174898.01938865.06019628.01938865.14075747-.01967803.20125323l-.74110951 1.85140983c-.68294355-.4630022-1.22929839-1.16738845-1.50218642-1.97240135zm3.29693893-.02006543 1.95072989.34201069c-.0975221.28181441-.2144327.5435634-.3704101.76488205-.29776762.48816214-.69782689.90075283-1.17055366 1.20721983l-.76107692-1.87147527c-.03877731-.16082289.01967803-.32194526.17565539-.40250645.05845534-.02006542.11720006-.04013085.1756554-.04013085zm-1.34649845-1.60972632.37069944.48306764-.13658871.58369425-.5266768.2614495-.52667681-.2614495-.15626674-.58369425.37069944-.48306764zm2.94591754-1.428838c.215493.36784635.3735125.76859873.4682214 1.18745393.0978114.42227239.1172001.84484427.0784228 1.26741614l-1.8537866-.54296443c-.1756554-.04013085-.27317742-.22161813-.23411074-.40250645.01967804-.06019628.03906669-.10062661.07813337-.14075746zm-6.49606647 0 1.44344171 1.32791191c.13658871.12099152.15626674.32224474.03906668.46300221-.03906668.06019628-.07813337.08056119-.15626674.10062661l-1.87259649.56332934c-.07813337-.84514375.11691068-1.71035293.54635484-2.45487007zm2.77026212-1.85140988-.11720006 2.01253226c0 .18088831-.15626674.32164577-.33163275.32164577-.05845534 0-.09752203-.02006542-.15626675-.04013085l-1.58003041-1.18745392c.49369039-.50914098 1.1155038-.86472578 1.79475249-1.02633155zm.95583159.02006543c.81924288.10062661 1.59970845.48306764 2.18484059 1.08652783l-1.58003041 1.1673885c-.13658871.0802617-.33163276.06019627-.42915478-.08086067-.03857992-.03573316-.06005656-.08719306-.05874473-.14075747z" fill="#389fd6"/></svg>