<svg height="14" viewBox="0 0 14 14" width="14" xmlns="http://www.w3.org/2000/svg"><g fill="none" fill-rule="evenodd"><path d="m.47194294 4.14497341c0-.33148862.24151984-.4812543.55862467-.39195008l.08823248.03032614 4.16742857 2.60463782c.32348571.19570237.58865142.56705825.6384497.95597948l.00840743.13007412-.0006748 1.4580234c-.87513274.72775871-1.47126813 1.61497491-1.47126813 2.33444111 0 .4751855.26004628 1.023547.68876816 1.5508127l-4.03111093-2.5211923c-.32348572-.1951706-.58865144-.56647328-.63844972-.95538919l-.00840743-.13007354zm11.35314286.14535865c.3317802-.20072038.6022113-.092808.6418529.26657288l.0050042.09505106.000665 4.04872455c-.9067821-.67050158-2.0449802-1.15639742-3.12257615-1.15639742-.75981478 0-1.54975901.24157207-2.2674645.61909767l.00023284-.68874902c0-.39087294.23235428-.78174588.54126514-1.01453066l.105592-.07152295zm-10.05942858-2.0994279 3.88-2.02674858c.31898414-.19276105.80908643-.21417895 1.11593025-.06425368l4.41721263 2.67007328c.3289524.19878484.3563651.4586405.0822381.66760381l-.0822381.05564408-4.09600001 2.098837c-.31898414.12868245-.75219754.1429805-1.09696728-.00773585l-.12474701-.06435258-4.096-2.6052287c-.32895238-.19932649-.35636508-.45922729-.08179795-.66819436z" fill="#858585" fill-rule="nonzero"/><path d="m9.35003175 8.54428313c2.14777405 0 3.88888885 2.12618777 3.88888885 2.72222227 0 .5960344-1.7411148 2.7222222-3.88888885 2.7222222-2.14777403 0-3.88888889-2.1261878-3.88888889-2.7222222 0-.5960345 1.74111486-2.72222227 3.88888889-2.72222227zm0 .77777778c-1.07388702 0-1.94444445.87055739-1.94444445 1.94444449 0 1.073887.87055743 1.9444444 1.94444445 1.9444444 1.07388705 0 1.94444445-.8705574 1.94444445-1.9444444 0-1.0738871-.8705574-1.94444449-1.94444445-1.94444449zm.02991453.77777779c.64433222 0 1.16666662.5223344 1.16666662 1.1666667 0 .6443322-.5223344 1.1666666-1.16666662 1.1666666-.64433221 0-1.16666667-.5223344-1.16666667-1.1666666 0-.6443323.52233446-1.1666667 1.16666667-1.1666667z" fill="#389fd6"/></g></svg>