<svg height="14" viewBox="0 0 14 14" width="14" xmlns="http://www.w3.org/2000/svg"><path d="m5.46114286 12.5384047v-5.06576547c0-.43430977-.28742857-.86861952-.64685714-1.08606986l-4.16742857-2.60467678c-.35942858-.14536081-.64685715 0-.64685715.36162936v5.06576544c0 .43430976.28742857.86861951.64685715 1.08547891l4.16742857 2.6058586c.35942857.2168594.64685714.0720895.64685714-.3622202zm-4.168-9.62513162 4.096 2.60526767c.35942857.21685943.86285714.21685943 1.22171429.07208951l4.09600005-2.0988684c.3588571-.21685943.3588571-.50639928 0-.72325871l-4.31142862-2.60585858c-.28742857-.21685943-.86285714-.21685943-1.22171429 0l-3.88 2.0267789c-.35942857.21685943-.35942857.50639927-.00057143.72384961zm5.96457143 9.98676092 4.09542861-2.0988684c.3594285-.2168594.6468571-.6511692.6468571-1.08547894v-5.06517453c0-.43430977-.2874286-.57907969-.6468571-.36162936l-4.09542861 2.0982775c-.36000001.21745032-.64685714.65176009-.64685714 1.08606985v5.06576548c0 .4337188.28742857.5784888.64685714.3610384z" fill="#858585" transform="translate(1 .419851)"/></svg>