<svg height="14" viewBox="0 0 14 14" width="14" xmlns="http://www.w3.org/2000/svg"><g fill="none" fill-rule="nonzero" transform="translate(1 .419851)"><path d="m0 4.14352195c0-.33149358.24151984-.4812615.55862467-.39195595l.08823248.03032659 4.16742857 2.60467678c.32348571.19570531.58865142.56706674.63844971.95599379l.00840743.13007607.000632.62595203c-.2955339.59852747-.46177486 1.2713627-.46177486 1.98155764 0 .710195.16624096 1.3830302.46177486 1.9815577l-.000632.4766981c0 .4009013-.24490955.5550941-.56528825.4058781l-.08156889-.0436579-4.16742857-2.6058586c-.32348572-.1951735-.58865144-.5664817-.63844972-.95540344l-.00840743-.13007547zm8.68769781 1.51040363 2.66544509-1.36504281c.3317802-.20072338.6022113-.09280939.6418529.26657687l.0050042.09505249.0010065 1.69253648c-.7161676-.48147209-1.5769641-.7628997-2.5010065-.7628997-.2771909 0-.54869058.0253245-.81230219.07377667zm-3.51398352-5.49128101c.31898413-.19276394.80908642-.21418215 1.11593024-.06425464l4.41721267 2.67011322c.3289523.19878781.356365.45864736.082238.66761379l-.082238.05564492-4.09600005 2.0988684c-.31898413.12868437-.75219754.14298264-1.09696728-.00773598l-.12474701-.06435353-4.096-2.60526767c-.32895238-.19932948-.35636508-.45923417-.08179795-.66820436l.08236938-.05564525z" fill="#858585"/><path d="m3.5 0c1.925 0 3.5 1.575 3.5 3.5s-1.575 3.5-3.5 3.5-3.5-1.575-3.5-3.5 1.575-3.5 3.5-3.5zm-.9208 1.23847619-.0292-.00038095c-.9.38095238-1.55 1.28571428-1.55 2.28571428 0 1.38095238 1.15 2.47619048 2.6 2.47619048 1.1 0 2-.61904762 2.4-1.47619048 0-.04761904-.05-.04761904-.1-.04761904-.25.09523809-.55.14285714-.85.14285714-1.45 0-2.6-1.0952381-2.6-2.47619048 0-.28571428.05-.57142857.15-.85714285.05-.04761905 0-.04761905-.05-.04761905zm2.7208-.23847619h-1.7c-.2 0-.3.14285714-.3.28571429 0 .19047619.15.28571428.3.28571428h1.05l-1.25 1.19047619c-.05.0952381-.1.19047619-.05.28571429.05.09523809.15.19047619.25.23809524h1.7c.2 0 .3-.14285715.3-.28571429 0-.19047619-.15-.28571429-.3-.28571429h-1.05l1.25-1.28571428c.05-.0952381.1-.19047619.05-.28571429-.05-.09523809-.15-.14285714-.25-.14285714z" fill="#eda200" transform="translate(6 6.580149)"/></g></svg>