<svg height="14" viewBox="0 0 14 14" width="14" xmlns="http://www.w3.org/2000/svg"><g fill="none" fill-rule="evenodd"><path d="m1.5 7c.82842712 0 1.5.67157288 1.5 1.5 0 .6528467-.41706808 1.20828193-.99929704 1.41439849l-.00070296.58560151c0 .7796961.59488808 1.4204487 1.35553999 1.4931334l.14446001.0068666.58524952.0002925c.2058356-.582749.76153179-1.0002925 1.41475048-1.0002925.82842712 0 1.5.6715729 1.5 1.5s-.67157288 1.5-1.5 1.5c-.6528467 0-1.20828193-.4170681-1.41439849-.999297l-.58560151-.000703c-1.3254834 0-2.41003867-1.0315359-2.49468232-2.3356243l-.00531768-.1643757.00029246-.58524952c-.58274895-.2058356-1.00029246-.76153179-1.00029246-1.41475048 0-.82842712.67157288-1.5 1.5-1.5zm4 5c-.27614237 0-.5.2238576-.5.5s.22385763.5.5.5.5-.2238576.5-.5-.22385763-.5-.5-.5zm-4-4c-.27614237 0-.5.22385763-.5.5s.22385763.5.5.5.5-.22385763.5-.5-.22385763-.5-.5-.5z" fill="#afb1b3" fill-rule="nonzero"/><circle cx="7" cy="7" fill="#59a869" r="2"/></g></svg>