<svg height="14" viewBox="0 0 14 14" width="14" xmlns="http://www.w3.org/2000/svg"><g fill="none" fill-rule="evenodd"><path d="m8.4 0 .5 2.4 2.1-1.3 2 2-1.4 2.1 2.4.4v2.8l-1.454.303-.566-.926 1.02-.177v-1.2l-2.133-.444-.544-.891 1.277-1.965-.8-.8-2 1.3-.7-.2-.5-2.4h-1.2l-.5 2.4-.7.3-2-1.3-.9.8 1.3 2-.2.7-2.4.5v1.2l2.4.5.3.8-1.3 2 .8.8 2-1.3.537.202-.63 1.031-.007-.033-2.1 1.3-2-2 1.4-2.1-2.4-.4v-2.8l2.4-.5-1.3-2.1 2-2 2.1 1.4.4-2.4zm-1.4 5c.67587719 0 1.2762486.33977602 1.63873766.85695149l-.64373766 1.05104851-.00104956-.03343732c-.05211371-.52966472-.43680758-.87456268-.99395044-.87456268-.6 0-1 .4-1 1s.4 1 1 1c.13104396 0 .25254762-.01908058.36242734-.05515807l-.63417775 1.03663198c-.97268437-.13362387-1.72824959-.9735972-1.72824959-1.98147391 0-1.1.9-2 2-2z" fill="#858585" fill-rule="nonzero"/><path d="m9.72222222 6 4.27777778 7h-8.55555556zm.50298228 5.3491812h-1.00000003v1.0127601h1.00000003zm0-3.24095955h-1.00000003v2.40122725h1.00000003z" fill="#eda200"/></g></svg>