<svg height="14" viewBox="0 0 14 14" width="14" xmlns="http://www.w3.org/2000/svg"><g fill="none" fill-rule="evenodd"><path d="m6 0-.00017783 1.155-4.062 2.345c-.27502318.15878471-.45617799.43726855-.49303926.74811259l-.00696074.11791281v5.2679492c0 .31756941.15059668.613696.40136488.8010408l.09863512.0649846 3.303 1.906-.522.855-3.281-1.8949746c-.57120198-.3297836-.93994823-.9177349-.99329853-1.5682357l-.00670147-.1638151v-5.2679492c0-.65956724.32480764-1.2728865.86148269-1.64433961l.13851731-.08771119zm-3.5 7.75996192 4.14782217 2.34503808-.77 1.26-3.08455607-1.74296433c-.18119868-.10242721-.2932661-.29445897-.2932661-.50260386zm5.5-7.75996192 4.5621778 2.6339746c.571202.32978362.9399483.91773491.9932986 1.5682357l.0067014.1638151v5.2679492c0 .4174742-.1301269.8164201-.3617417 1.1472334l-.6446139-1.053208.0063556-.0940254v-5.2679492c0-.31756941-.1505967-.613696-.4013648-.80104082l-.0986352-.06498458-4.06235563-2.345zm-5.5 4.93296192 4.21132675 2.38168222c.14885969.08414676.32650522.09817122.4849602.04207338l.0923863-.04207338 1.62614892-.92064414-1.42 2.324-.49482217.28040575-4.5-2.54444383zm8.999.001v1.52l-.7021778.39603808-.69-1.13zm-4.21489026-2.94825736 3.55989026 2.01225736-3.844 2.1740839-3.845-2.1740839 3.56089026-2.01225736c.1762978-.09965685.39192168-.09965685.56821948 0z" fill="#858585" fill-rule="nonzero"/><path d="m9.71777778 7 4.27777782 7h-8.5555556zm.50298222 5.3491812h-.99999998v1.0127601h.99999998zm0-3.24095955h-.99999998v2.40122725h.99999998z" fill="#eda200"/></g></svg>