<svg height="14" viewBox="0 0 14 14" width="14" xmlns="http://www.w3.org/2000/svg"><path d="m6 0-.00017783 1.155-4.062 2.345c-.27502318.15878471-.45617799.43726855-.49303926.74811259l-.00696074.11791281v5.2679492c0 .31756941.15059668.613696.40136488.8010408l.09863512.0649846 4.062 2.344.00017783 1.156-4.56217783-2.6339746c-.57120198-.3297836-.93994823-.9177349-.99329853-1.5682357l-.00670147-.1638151v-5.2679492c0-.65956724.32480764-1.2728865.86148269-1.64433961l.13851731-.08771119zm2 0 4.5621778 2.6339746c.571202.32978362.9399483.91773491.9932986 1.5682357l.0067014.1638151v5.2679492c0 .6595672-.3248076 1.2728865-.8614827 1.6443396l-.1385173.0877112-4.5621778 2.6339746-.00017783-1.156 4.06235563-2.344c.2750232-.1587847.456178-.4372686.4930393-.74811259l.0069607-.11791281v-5.2679492c0-.31756941-.1505967-.613696-.4013648-.80104082l-.0986352-.06498458-4.06235563-2.345zm-5.5 7.75996192 4.21132675 2.38104218c.14885969.0841467.32650522.0981712.4849602.0420734l.0923863-.0420734 4.21032675-2.38004218.0009707 1.35846989c0 .20814489-.1120381.40017665-.2932368.50260386l-3.92262416 2.21736403c-.1762978.0996568-.39192168.0996568-.56821948 0l-3.92262416-2.21736403c-.18119868-.10242721-.2932661-.29445897-.2932661-.50260386zm0-2.827 4.21132675 2.38168222c.14885969.08414676.32650522.09817122.4849602.04207338l.0923863-.04207338 4.21032675-2.38068222v1.52l-4.499 2.54444383-4.5-2.54444383zm4.78410974-2.94725736 3.55989026 2.01225736-3.844 2.1740839-3.845-2.1740839 3.56089026-2.01225736c.1762978-.09965685.39192168-.09965685.56821948 0z" fill="#389fd6"/></svg>