<svg height="14" viewBox="0 0 14 14" width="14" xmlns="http://www.w3.org/2000/svg"><g fill="none" fill-rule="evenodd"><path d="m5.23 1.1769342c.725-.724 2.135-.771 2.86-.046l1.201 1.201-.037.14c-.615-.158-1.437.144-1.917.626l-.85.849-.226.226c.102.106.18.182.232.232l2.3 2.1890658-1.218 1.993-2.568-2.6960658c-.03225-.0345-.0841875-.085875-.15454687-.1558125l-.07645313-.0761875-.228.228-.82.821-.233.232.233.233.04.04.232.232-.232.23-.739.74h-.465l-2.564-2.564v-.464l.739-.74.232-.232.232.232.279.279.233-.233 1.087-1.088c-.118-.116-.195-.194-.232-.232l-.045-.047.005-.47.928-.928.47-.005.047.045c.045.042.123.12.233.232l.237-.237z" fill="#59a869" fill-rule="nonzero"/><path d="m5.6858215 11.679-.633 1.036-2.19432393.0003v1.2874463l-2.20567607-2.3227463zm-.86290889-3.319 1.75890889 1.853-.286.469-5.643.0007463v-1.03529996h4.17009111z" fill="#afb1b3" fill-rule="nonzero"/><path d="m9.71777778 7 4.27777782 7h-8.5555556zm.50298222 5.3491812h-.99999998v1.0127601h.99999998zm0-3.24095955h-.99999998v2.40122725h.99999998z" fill="#eda200"/></g></svg>