<svg height="14" viewBox="0 0 14 14" width="14" xmlns="http://www.w3.org/2000/svg"><g fill="none" fill-rule="evenodd"><path d="m5.23 1.1769342c.725-.724 2.135-.771 2.86-.046l1.201 1.201-.037.14c-.615-.158-1.437.144-1.917.626l-.85.849-.226.226c.102.106.18.182.232.232l2.11364543 2.0115718c-.69410822.32237396-1.29225695.81651365-1.73985008 1.42782298l-1.85979535-1.95339478c-.043-.046-.121-.122-.231-.232l-.228.228-.82.821-.233.232.233.233.04.04.232.232-.232.23-.739.74h-.465l-2.564-2.564v-.464l.739-.74.232-.232.232.232.279.279.233-.233 1.087-1.088c-.118-.116-.195-.194-.232-.232l-.045-.047.005-.47.928-.928.47-.005.047.045c.045.042.123.12.233.232l.237-.237z" fill="#db5860" fill-rule="nonzero"/><path d="m10.5 7c1.9329966 0 3.5 1.56700338 3.5 3.5 0 1.9329966-1.5670034 3.5-3.5 3.5-1.93299662 0-3.5-1.5670034-3.5-3.5 0-1.93299662 1.56700338-3.5 3.5-3.5zm1.0606602 1.73223305-1.0606602 1.06066017-1.06066017-1.06066017-.70710678.70710678 1.05995306 1.05995307-1.05995306 1.0613673.70710678.7071068 1.05995307-1.0613673 1.0613673 1.0613673.7071068-.7071068-1.0606602-1.0606602 1.0606602-1.06066017z" fill="#db5860"/><path d="m6.58263981 12.7161598-3.72414224-.0008598v1.2874463l-2.20567607-2.3227463 5.50352967.0001896c.09918998.3659394.24338946.713366.42628864 1.0359702zm-1.7597272-4.3561598 1.25188715 1.31855638c-.04912608.26633729-.07479976.54089222-.07479976.82144362l.0038215.182-5.351.0007463v-1.03529996h4.17009111z" fill="#afb1b3" fill-rule="nonzero"/></g></svg>