<svg height="32" viewBox="0 0 32 32" width="32" xmlns="http://www.w3.org/2000/svg"><path d="m13.2173913 5.76c3.8419809 0 6.9565217 3.10415907 6.9565217 6.9333333h5.9826087c.5378774 0 .9739131.4345823.9739131.9706667v5.9626667c0 3.8291742-3.1145409 6.9333333-6.9565218 6.9333333-3.8419808 0-6.9565217-3.1041591-6.9565217-6.9333333l-.239155-.0040204c-1.2278158-.0413416-2.3749474-.3998044-3.36154416-.9958038-.4911492 2.1603866-2.43016675 3.7731575-4.74712692 3.7731575-2.68938661 0-4.86956522-2.1729113-4.86956522-4.8533333s2.18017861-4.8533334 4.86956522-4.8533334c.48469591 0 .95285214.0705788 1.3946869.2019873l-.00338255-.2019873c0-3.82917423 3.11454087-6.9333333 6.95652173-6.9333333zm17.8086957 2.08c.5378773 0 .973913.43458227.973913.97066667v6.37866663c0 .5360844-.4360357.9706667-.973913.9706667l-2.0779217-.001.0003771-4.306934c0-.4977926-.3759696-.9080656-.8603342-.9641363l-.1135788-.0065304-4.3224641-.0003993.0000086-2.07033333c0-.5360844.4360357-.97066667.9739131-.97066667z" fill="#858585" fill-rule="evenodd"/></svg>