<svg width="15" height="15" viewBox="0 0 15 15" xmlns="http://www.w3.org/2000/svg"><path d="M8.719 8.438h-.144c-.113.068-.162.199-.113.312L9 10.069a2.771 2.771 0 0 0 1.119-1.406l-1.394-.225zm-2.156.181a.26.26 0 0 0-.238-.181h-.05l-1.388.231c.207.575.6 1.062 1.119 1.394l.531-1.294V8.75c.026-.031.026-.087.026-.131m1.143.506a.236.236 0 0 0-.319-.094c-.043.032-.074.05-.093.094h-.007l-.681 1.231a2.782 2.782 0 0 0 1.788 0l-.681-1.231zm2.157-2.856l-1.05.919.006.018c-.1.088-.113.238-.025.331a.228.228 0 0 0 .112.076l.007.006 1.356.387a2.917 2.917 0 0 0-.406-1.737m-1.944.1a.232.232 0 0 0 .244.225c.05 0 .093-.013.131-.031H8.3l1.144-.819a2.784 2.784 0 0 0-1.606-.775zm-1.213.194c.107.068.25.05.325-.057a.232.232 0 0 0 .05-.131h.007l.074-1.406c-.093.012-.187.031-.287.05-.5.112-.963.362-1.325.725l1.15.819zm-.618 1.056a.23.23 0 0 0 .162-.288c0-.05-.031-.087-.069-.118v-.007l-1.05-.956a2.785 2.785 0 0 0-.393 1.762l1.35-.387zm1.025.412l.387.188.387-.188.094-.418-.268-.332h-.432l-.268.332zm6.806.825l-1.106-4.793a.854.854 0 0 0-.463-.588L7.869 1.331a.91.91 0 0 0-.744 0L2.65 3.475a.85.85 0 0 0-.462.588L1.081 8.856a.744.744 0 0 0 0 .369.785.785 0 0 0 .032.112c.018.057.05.119.081.169.019.025.031.05.056.069l3.094 3.863c.012 0 .031.024.031.037.063.056.119.1.175.138.075.05.163.087.25.106.069.031.144.031.2.031h5.075c.044 0 .088-.019.125-.031.031-.006.062-.019.088-.025.025-.013.043-.019.068-.031.032-.013.063-.032.094-.05a1.39 1.39 0 0 0 .206-.175l.094-.125 3-3.738a.837.837 0 0 0 .138-.238c.012-.037.025-.075.031-.112a.744.744 0 0 0 0-.369m-4.644 1.869c.013.037.025.075.044.106a.21.21 0 0 0-.019.163c.075.15.144.287.238.425.05.068.099.144.15.212 0 .019.018.05.025.075a.269.269 0 0 1-.094.369.266.266 0 0 1-.369-.094c-.006-.019-.012-.031-.019-.05-.012-.019-.025-.056-.037-.056a3.013 3.013 0 0 1-.075-.256c-.056-.157-.107-.306-.188-.45a.235.235 0 0 0-.131-.088l-.05-.1a3.5 3.5 0 0 1-2.481-.006l-.063.112a.218.218 0 0 0-.118.057 2.39 2.39 0 0 0-.207.481 1.944 1.944 0 0 1-.075.25c-.012 0-.025.044-.037.063a.269.269 0 1 1-.506-.182c.006-.018.018-.031.024-.05.026-.018.026-.05.026-.069.056-.074.1-.143.15-.218.1-.132.181-.282.243-.432a.337.337 0 0 0-.018-.156l.043-.112a3.506 3.506 0 0 1-1.543-1.932l-.125.019a.246.246 0 0 0-.144-.056 3.105 3.105 0 0 0-.481.138A1.306 1.306 0 0 1 3.125 9a.273.273 0 0 1-.337-.169.272.272 0 0 1 .175-.344c.012 0 .031-.006.05-.006v-.006h.006l.069-.013c.087-.024.175-.024.256-.024.162 0 .325-.038.481-.075a.366.366 0 0 0 .119-.119l.119-.032A3.402 3.402 0 0 1 4.6 5.794l-.087-.075a.273.273 0 0 0-.05-.156 2.598 2.598 0 0 0-.4-.282 2.013 2.013 0 0 1-.225-.131c-.013-.013-.038-.031-.05-.044L3.781 5.1c-.125-.1-.156-.263-.068-.394a.284.284 0 0 1 .218-.093.348.348 0 0 1 .188.075l.056.043c.063.056.119.125.175.188.113.119.231.231.363.325.05.025.106.031.162.018l.094.069a3.435 3.435 0 0 1 2.237-1.075l.007-.112A.288.288 0 0 0 7.3 4a2.473 2.473 0 0 0-.031-.481 1.753 1.753 0 0 1-.038-.256v-.075a.28.28 0 0 1 .244-.301.268.268 0 0 1 .294.238v.138a1.627 1.627 0 0 1-.038.256A2.473 2.473 0 0 0 7.7 4a.214.214 0 0 0 .087.137l.007.119a3.49 3.49 0 0 1 2.225 1.075l.1-.075a.244.244 0 0 0 .162-.018c.132-.094.257-.207.363-.325.056-.063.112-.126.175-.188.019-.012.044-.037.062-.037.107-.113.275-.113.369 0 .119.099.113.268 0 .375 0 .012-.019.025-.037.037a1.518 1.518 0 0 1-.275.175 2.256 2.256 0 0 0-.4.281.188.188 0 0 0-.05.15l-.1.088c.481.706.675 1.568.55 2.412l.118.032c.025.05.069.087.119.112.156.044.319.069.481.088h.256c.019.018.05.024.076.031a.27.27 0 0 1 .231.306c-.031.144-.15.25-.3.231C11.9 9 11.875 9 11.875 8.994v-.006c-.037 0-.062-.007-.087-.013a1.142 1.142 0 0 1-.225-.094 2.238 2.238 0 0 0-.482-.131c-.056 0-.106 0-.143.05a2.311 2.311 0 0 1-.119-.019 3.51 3.51 0 0 1-1.544 1.944z" fill="#c2c2c2"/></svg>